<svg width="100" height="92" viewBox="0 0 100 92" fill="none" xmlns="http://www.w3.org/2000/svg">
<g clip-path="url(#clip0_3701_6672)">
<path d="M51.2556 23H50.9724H47.8574H41.9106H35.6807H32.8489H32.5657V27.0329H32.8489C35.6807 27.0329 37.6629 27.321 37.6629 31.3538V43.4525H13.3095V31.3538C13.3095 27.321 15.2917 27.0329 18.1235 27.0329H18.4067V23H18.1235H15.2917H9.34494H3.11498H0.28318H0V27.0329H0.28318C3.11498 27.0329 5.09724 27.321 5.09724 31.3538V61.6005C5.09724 65.6334 3.11498 65.9215 0.28318 65.9215H0V69.9544H0.28318H3.11498H9.34494H15.2917H18.1235H18.4067V65.9215H18.1235C15.2917 65.9215 13.3095 65.6334 13.3095 61.6005V48.0615H37.9461V61.6005C37.9461 65.6334 35.9638 65.9215 33.132 65.9215H32.8489V69.9544H33.132H35.9638H42.1938H48.1406H50.9724H51.2556V65.9215H50.9724C48.1406 65.9215 46.1583 65.6334 46.1583 61.6005V31.3538C46.1583 27.321 48.1406 27.0329 50.9724 27.0329H51.2556V23Z" fill="#9F9890"/>
<path d="M99.9999 67.938V62.4647C99.9999 62.4647 95.7316 64.4812 88.0486 65.0573C77.5201 65.0573 68.9833 59.296 68.9833 46.0451C68.9833 32.7942 77.2355 28.4732 86.6258 28.4732C95.4471 28.4732 99.9999 31.0658 99.9999 31.0658V25.3045C99.9999 25.3045 96.0161 23 86.3412 23C71.2598 23 62.7231 31.6419 62.7231 46.3332C62.7231 59.8722 71.2598 69.9544 86.6258 69.9544C94.8779 69.9544 99.9999 67.938 99.9999 67.938Z" fill="#9F9890" stroke="#9F9890"/>
</g>
<defs>
<clipPath id="clip0_3701_6672">
<rect width="100" height="92" fill="white"/>
</clipPath>
</defs>
</svg>
