<svg width="189" height="189" viewBox="0 0 189 189" fill="none" xmlns="http://www.w3.org/2000/svg">
<path d="M186 11H184.989H173.867H152.635H130.392H120.282H119.271V25.3436H120.282C130.392 25.3436 137.47 26.3681 137.47 40.7117V83.7423H50.5193V40.7117C50.5193 26.3681 57.5967 25.3436 67.7072 25.3436H68.7182V11H67.7072H57.5967H36.3646H14.1215H4.01105H3V25.3436H4.01105C14.1215 25.3436 21.1989 26.3681 21.1989 40.7117V148.288C21.1989 162.632 14.1215 163.656 4.01105 163.656H3V178H4.01105H14.1215H36.3646H57.5967H67.7072H68.7182V163.656H67.7072C57.5967 163.656 50.5193 162.632 50.5193 148.288V100.135H138.481V148.288C138.481 162.632 131.403 163.656 121.293 163.656H120.282V178H121.293H131.403H153.646H174.878H184.989H186V163.656H184.989C174.878 163.656 167.801 162.632 167.801 148.288V40.7117C167.801 26.3681 174.878 25.3436 184.989 25.3436H186V11Z" fill="#9F9890"/>
</svg>
