<svg width="189" height="189" viewBox="0 0 189 189" fill="none" xmlns="http://www.w3.org/2000/svg">
<g clip-path="url(#clip0_3798_2832)">
<path fill-rule="evenodd" clip-rule="evenodd" d="M101.261 0H87.7568V59.7774L65.3663 4.3566L52.852 9.40748L75.8326 66.2689L32.4575 22.9112L22.9112 32.4575L64.4811 74.0275L10.6051 50.4741L5.20709 62.8496L62.19 87.7568H0V101.261H62.19L5.20709 126.15L10.6051 138.526L64.4638 114.99L22.8938 156.56L32.4402 166.106L75.7979 122.748L52.8172 179.61L65.3316 184.661L87.7221 129.24V189.017H101.226V129.24L123.616 184.661L136.131 179.61L113.167 122.748L156.525 166.106L166.071 156.56L124.502 114.99L178.36 138.526L183.758 126.15L126.775 101.243H188.965V87.7395H126.775L183.758 62.8322L178.36 50.4567L124.502 73.9928L166.071 32.4228L156.525 22.8765L113.167 66.2342L136.131 9.37276L123.616 4.32188L101.226 59.7427V0H101.261Z" fill="#9F9890"/>
</g>
<defs>
<clipPath id="clip0_3798_2832">
<rect width="189" height="189" fill="white"/>
</clipPath>
</defs>
</svg>
